Simulation
nRows=44
nColumns=15
endheader
time  TH_x TH_y TH_z SC_y  SC_z  SC_x  AC_y  AC_z  AC_x  GH_y  GH_z  GH_yy  EL_x  PS_y
0.75  0.000000  0.000000  0.000000  -33.37533327192796  3.9693713648414066  20.55187968175345  60.00169662173932  -0.8732942419804527  -11.987103062320111  21.750570594396667  33.05245735837669  -18.39964145267152  19.94936230415765  0.000000
0.765  0.000000  0.000000  0.000000  -33.50869023407715  4.172034115221066  20.766082719575326  60.06694101271385  -0.5122194399860576  -11.86447317073232  21.81208848605316  33.55997292299235  -18.731115769606127  19.74450831518977  0.000000
0.78  0.000000  0.000000  0.000000  -33.64043990735545  4.377269395305613  20.987306591130988  60.1232370320506  -0.15516480194367593  -11.743219824253304  21.879920786659326  34.05212725929631  -19.06153528049376  19.538318367894085  0.000000
0.7949999999999999  0.000000  0.000000  0.000000  -33.77211083920791  4.585098918537491  21.216591728205003  60.17132694111987  0.19576712242408  -11.62262703825524  21.9534937124075  34.52901224611396  -19.3906083448227  19.331303095917256  0.000000
0.8099999999999999  0.000000  0.000000  0.000000  -33.90303693199481  4.795266729250411  21.453344254026586  60.21211848658383  0.5384175669424281  -11.501712071143453  22.032135823101367  34.99075493907624  -19.71787934078481  19.123941188859884  0.000000
0.825  0.000000  0.000000  0.000000  -34.03495644856922  5.007843257946328  21.698565167212397  60.2468796296967  0.8705397611976916  -11.379378886342321  22.114879791029225  35.43751522655282  -20.04265981302482  18.91692954389332  0.000000
0.84  0.000000  0.000000  0.000000  -34.16735241451912  5.222570128177825  21.951571597133654  60.27710949619328  1.189897060935735  -11.254393353542007  22.200514972542692  35.869453269398996  -20.36407579239655  18.710924009272418  0.000000
0.855  0.000000  0.000000  0.000000  -34.302152437198146  5.439641486158763  22.213250089047595  60.30454803429393  1.494169621886627  -11.125223758032698  22.287594150790664  36.28671461793931  -20.681142314787543  18.506281284206135  0.000000
0.87  0.000000  0.000000  0.000000  -34.439046195983856  5.658923429914876  22.48260120356848  60.330919492494374  1.7811239338011886  -10.990288490997806  22.37464147400614  36.68958611440568  -20.992845649079342  18.30345855754443  0.000000
0.885  0.000000  0.000000  0.000000  -34.58017564953161  5.880647993701443  22.76010388442712  60.35806577631844  2.048758097902006  -10.848028347119318  22.46015184069835  37.07841254623076  -21.298042668824113  18.103096938967685  0.000000
0.8999999999999999  0.000000  0.000000  0.000000  -34.72524969901573  6.104523073385441  23.044352920236697  60.38766495503548  2.2954658097443636  -10.697059881747071  22.542794732957496  37.45359140927147  -21.595694531398117  17.905771183698327  0.000000
0.9149999999999999  0.000000  0.000000  0.000000  -34.87620360562776  6.330515151847222  23.33540932751548  60.42133630035201  2.5202566270499904  -10.536319799373677  22.621453605047282  37.81548195459438  -21.88488214829423  17.712095245041365  0.000000
0.9299999999999999  0.000000  0.000000  0.000000  -35.03234739535738  6.557968632548094  23.631399157805795  60.4602106524091  2.7228498261010556  -10.365210606072198  22.69554695734689  38.1643824710361  -22.16503155063599  17.522710117928067  0.000000
0.945  0.000000  0.000000  0.000000  -35.195072239647274  6.786522264404812  23.931942409112203  60.50503964249354  2.9037934135115724  -10.183678539333341  22.765039633257686  38.500481031014345  -22.43589892081971  17.33833284752829  0.000000
0.96  0.000000  0.000000  0.000000  -35.36303364268969  7.015083908644441  24.234723012407255  60.555906615907254  3.0644189992715014  -9.992334744266401  22.830607862656922  38.823932599341056  -22.697759474582817  17.15973130885424  0.000000
0.975  0.000000  0.000000  0.000000  -35.53687648150512  7.242964691473134  24.539194086391323  60.612393346852585  3.2066341110884915  -9.792313068780633  22.89323090841705  39.134747895704805  -22.950968531268956  16.987753862535158  0.000000
0.99  0.000000  0.000000  0.000000  -35.71423834929268  7.469140190749124  24.842916583559482  60.67348608167313  3.3327162936365475  -9.585266864385384  22.954090370081374  39.43288068214106  -23.196102824730914  16.823205913020654  0.000000
1.005  0.000000  0.000000  0.000000  -35.8949134324391  7.693240074951737  25.14533138914059  60.73788157664969  3.445013581864294  -9.372823424631186  23.01402433942201  39.71824201657347  -23.43329756146941  16.666928953545806  0.000000
1.02  0.000000  0.000000  0.000000  -36.07580098270393  7.914463618328828  25.44385588142134  60.8040292007127  3.545847096020769  -9.156743557902386  23.07348515570874  39.991029802598014  -23.662603124891277  16.519563505879262  0.000000
1.035  0.000000  0.000000  0.000000  -36.255850348435686  8.132284542668385  25.737828991613625  60.87046625481043  3.6375637381717074  -8.938746760390327  23.131897737709963  40.2515536317608  -23.88333164608951  16.381487061548004  0.000000
1.05  0.000000  0.000000  0.000000  -36.43226952462703  8.345953257005686  26.02452022779487  60.93570994196713  3.7223485173475277  -8.720080615310446  23.188546937360687  40.50039088347469  -24.094706864750425  16.25320941505177  0.000000
1.065  0.000000  0.000000  0.000000  -36.606567152252104  8.555991929315905  26.303526522810063  60.99902952845727  3.801809000699242  -8.50116192542606  23.242804560773717  40.73805526655035  -24.29604573784791  16.13562585027066  0.000000
1.08  0.000000  0.000000  0.000000  -36.777945293701535  8.761564598957504  26.572956285266365  61.06019202950673  3.877483645890257  -8.282558983063609  23.2931077602937  40.965247583303714  -24.486023344603936  16.02925714860865  0.000000
1.095  0.000000  0.000000  0.000000  -36.94734394405639  8.961981049835579  26.833520795135954  61.11947274863714  3.9508558725320757  -8.065354193731938  23.336627085231253  41.1823404974325  -24.66252805985581  15.9342573210133  0.000000
1.1099999999999999  0.000000  0.000000  0.000000  -37.11327552778477  9.155906223578759  27.083730622664334  61.17724210784426  4.023304660677934  -7.850598036012031  23.37045724702292  41.390037830987424  -24.823297865587467  15.850696087582808  0.000000
1.125  0.000000  0.000000  0.000000  -37.27752248071806  9.342791461069602  27.324470579094086  61.233975902419004  4.0957589386490305  -7.638841947014879  23.39220070702567  41.58886897199938  -24.966471727867393  15.778804428685836  0.000000
1.14  0.000000  0.000000  0.000000  -37.43931124950761  9.521750060568555  27.554279625757392  61.28992466209772  4.168789326808372  -7.430659111046664  23.399991310280047  41.779739596801505  -25.09066718998325  15.718568860120367  0.000000
1.155  0.000000  0.000000  0.000000  -37.59966607964021  9.691724412384694  27.773980984647356  61.34543293304243  4.243216356800826  -7.227397881644268  23.39160054892783  41.96319575517302  -25.194252574947342  15.67017990051927  0.000000
1.17  0.000000  0.000000  0.000000  -37.757035404906034  9.85119104476997  27.98173132742913  61.4005400267409  4.319774532923782  -7.030184962865921  23.365792554199658  42.1400527752649  -25.276280061031905  15.633793149958215  0.000000
1.185  0.000000  0.000000  0.000000  -37.91338434279873  10.000293802165322  28.17794239900563  61.45564183006473  4.3987008361348  -6.8392054782980365  23.32339236647595  42.31059787870201  -25.337402462238455  15.609054191475126  0.000000
1.2  0.000000  0.000000  0.000000  -38.067129883252285  10.137484998051006  28.36044468460817  61.51086935138677  4.480624271854469  -6.65571154902948  23.26574564258955  42.47538277627917  -25.378647840838827  15.595826379162393  0.000000
1.2149999999999999  0.000000  0.000000  0.000000  -38.21883536062641  10.26157678651875  28.529468497095344  61.566538151144414  4.566328741200848  -6.481465412724633  23.19445387720199  42.63394124578395  -25.40139009688412  15.594122947303383  0.000000
1.23  0.000000  0.000000  0.000000  -38.36665606577519  10.371078570457934  28.682642364168583  61.62244905513223  4.65591921344303  -6.317976816719086  23.11219469791899  42.785891518589  -25.40759415668564  15.603684010326742  0.000000
1.2449999999999999  0.000000  0.000000  0.000000  -38.51130594729003  10.464763911817359  28.820164147351182  61.678902742998034  4.749540029005053  -6.167341937736637  23.02226354259671  42.929588061203944  -25.399974768613912  15.624177535580207  0.000000
1.26  0.000000  0.000000  0.000000  -38.64999328106587  10.54003655889104  28.939446692643685  61.7356830915848  4.847116698477724  -6.0324046972602625  22.928308605747432  43.063342668769494  -25.381261326600843  15.655139126049395  0.000000
1.275  0.000000  0.000000  0.000000  -38.7830880022701  10.59491559148152  29.040501689650885  61.79341745554877  4.9484372304174  -5.916307204923357  22.835268518347497  43.183820880355405  -25.355554576472706  15.695835363920747  0.000000
1.29  0.000000  0.000000  0.000000  -38.908156744675495  10.62766159994606  29.12053817829307  61.851263959806815  5.051828748753658  -5.82138681742926  22.74903154346277  43.287239994157176  -25.32711369787835  15.745685506351531  0.000000
1.305  0.000000  0.000000  0.000000  -39.02277137556268  10.63561079265733  29.1792231587075  61.90953349898397  5.156619267301732  -5.752599772812251  22.674532599877686  43.36762275053809  -25.30024389060302  15.803218229460791  0.000000
1.3199999999999998  0.000000  0.000000  0.000000  -39.11925367946209  10.614094332208966  29.21278582862388  61.96681948684608  5.262127647581852  -5.715203897540322  22.61603469767843  43.418404211378935  -25.27847957940138  15.866591506789181  0.000000
1.335  0.000000  0.000000  0.000000  -39.195821022957766  10.560106847050454  29.220297677591525  62.02378653748911  5.367742527672234  -5.713842189335837  22.581369161368524  43.43007669720366  -25.26804855917288  15.933285079948458  0.000000
1.3499999999999999  0.000000  0.000000  0.000000  -39.24886656841406  10.468200972344993  29.197953232500343  62.080869145758975  5.472536543950156  -5.753804496088675  22.579441466425816  43.39262165609341  -25.27602780981782  16.001916529605456  0.000000
1.365  0.000000  0.000000  0.000000  -39.27623747087658  10.33028912212877  29.145709137788273  62.14116297771036  5.577962992669203  -5.843778876165778  22.618686970907582  43.29175897822766  -25.308000655478637  16.06993450997491  0.000000
1.38  0.000000  0.000000  0.000000  -39.27286853106746  10.13535300983973  29.061058004251095  62.20678497082901  5.684831294652061  -5.995721682665088  22.70804049962416  43.11203553488868  -25.370528199265994  16.14012226616506  0.000000
1.395  0.000000  0.000000  0.000000  -39.23959701104334  9.876886155206494  28.947310022695707  62.280714667827986  5.790621908611125  -6.218615446588338  22.86093957631159  42.83134584581579  -25.473004767015134  16.206430187078844  0.000000
